<?xml version="1.0" encoding="utf-8"?>
<!-- Generator: Adobe Illustrator 19.2.0, SVG Export Plug-In . SVG Version: 6.00 Build 0)  -->
<svg version="1.1" id="Layer_1" xmlns="http://www.w3.org/2000/svg" xmlns:xlink="http://www.w3.org/1999/xlink" x="0px" y="0px"
	 viewBox="0 0 514.2 514.6" style="enable-background:new 0 0 514.2 514.6;" xml:space="preserve">
<style type="text/css">
	.st0{fill:#FFFC00;}
	.st1{fill:#FFFFFF;}
	.st2{fill:#020202;}
</style>
<rect class="st0" width="514.2" height="514.2"/>
<path class="st1" d="M259.5,434.2c-1.1,0-2.1,0-2.9-0.1c-0.6,0.1-1.3,0.1-1.9,0.1c-22.4,0-37.4-10.6-50.7-20
	c-9.5-6.7-18.4-13-28.9-14.8c-5.1-0.9-10.3-1.3-15.2-1.3c-8.9,0-16,1.4-21.1,2.4c-3.2,0.6-5.9,1.1-8,1.1c-2.2,0-4.9-0.5-6-4.3
	c-0.9-3-1.5-5.9-2.1-8.7c-1.5-7-2.6-11.3-5.3-11.7c-28.1-4.3-44.8-10.7-48.1-18.5c-0.3-0.8-0.5-1.6-0.6-2.4
	c-0.1-2.3,1.5-4.3,3.8-4.7c22.3-3.7,42.2-15.5,59.1-35.1c13-15.2,19.5-29.7,20.1-31.3c0-0.1,0.1-0.1,0.1-0.2
	c3.2-6.6,3.9-12.3,1.9-16.9c-3.6-8.6-15.6-12.4-23.6-14.9c-2-0.6-3.8-1.2-5.3-1.8c-7-2.8-18.6-8.7-17.1-16.8c1.1-5.9,8.9-10,15.3-10
	c1.8,0,3.3,0.3,4.6,0.9c7.1,3.3,13.6,5,19.1,5c6.9,0,10.2-2.6,11-3.4c-0.2-3.7-0.4-7.5-0.7-11.2c0,0,0,0,0,0
	c-1.6-25.7-3.6-57.6,4.5-75.9c24.5-54.8,76.3-59.1,91.7-59.1c0.4,0,6.7-0.1,6.7-0.1c0.3,0,0.6,0,0.9,0c15.4,0,67.3,4.3,91.8,59.2
	c8.2,18.3,6.2,50.3,4.5,76l-0.1,1.2c-0.2,3.5-0.4,6.8-0.6,10c0.8,0.7,3.8,3.1,10,3.3c5.3-0.2,11.3-1.9,18-5c2.1-1,4.3-1.2,5.9-1.2
	c2.3,0,4.7,0.5,6.7,1.3l0.1,0c5.7,2,9.4,6,9.4,10.2c0.1,3.9-2.9,9.8-17.2,15.5c-1.5,0.6-3.3,1.2-5.3,1.8c-8,2.5-20,6.3-23.6,14.9
	c-2,4.6-1.3,10.3,1.9,16.9c0,0.1,0.1,0.1,0.1,0.2c1,2.3,25.2,57.5,79.2,66.4c2.3,0.4,3.9,2.4,3.8,4.7c0,0.8-0.2,1.7-0.6,2.5
	c-3.3,7.7-19.9,14.1-48.1,18.4c-2.6,0.4-3.8,4.7-5.3,11.7c-0.6,2.9-1.3,5.7-2.1,8.7c-0.8,2.8-2.6,4.2-5.6,4.2h-0.4
	c-1.9,0-4.6-0.3-8-1c-6-1.2-12.6-2.2-21.1-2.2c-4.9,0-10.1,0.4-15.2,1.3c-10.5,1.7-19.4,8.1-28.9,14.8
	C296.9,423.6,281.9,434.2,259.5,434.2"/>
<path class="st2" d="M260.8,84.9c14.5,0,64.2,3.9,87.7,56.5c7.7,17.3,5.7,48.7,4.2,73.9c-0.2,4-0.5,7.9-0.7,11.6l-0.1,1.6l1.1,1.2
	c0.4,0.5,4.4,4.7,13.4,5l0.1,0l0.2,0c5.9-0.2,12.6-2.1,19.8-5.4c1.1-0.5,2.5-0.7,4-0.7c1.7,0,3.5,0.3,5,1l0.2,0.1
	c3.8,1.3,6.5,3.8,6.5,6.1c0,1.3-0.9,5.9-14.4,11.2c-1.3,0.5-3,1.1-5,1.7c-8.7,2.8-21.9,7-26.4,17.4c-2.5,5.9-1.8,12.9,2,20.7
	c1.6,3.7,26.5,59.9,82.6,69.1c0,0.3-0.1,0.6-0.2,0.9c-1,2.2-7,10-44.6,15.8c-5.9,0.9-7.3,7.5-9,15.2c-0.6,2.7-1.2,5.5-2.1,8.4
	c-0.3,0.9-0.3,0.9-1.2,0.9c-0.1,0-0.3,0-0.4,0c-1.7,0-4.2-0.3-7.1-0.9c-5.3-1-12.6-2.3-22-2.3c-5.2,0-10.6,0.5-16,1.4
	c-11.5,1.9-20.9,8.5-30.8,15.5c-13.3,9.4-27.1,19.1-48.1,19.1c-0.9,0-1.8,0-2.7-0.1l-0.2,0l-0.2,0c-0.5,0-1,0.1-1.6,0.1
	c-21,0-34.8-9.7-48.1-19.1c-9.9-7-19.3-13.6-30.8-15.5c-5.4-0.9-10.8-1.4-16-1.4c-9.3,0-16.6,1.4-22,2.5c-2.9,0.6-5.5,1.1-7.1,1.1
	c-1.4,0-1.4-0.1-1.7-1.1c-0.8-2.9-1.5-5.7-2.1-8.4c-1.7-7.7-3.1-14.3-9-15.2c-37.6-5.8-43.7-13.6-44.6-15.8
	c-0.1-0.4-0.2-0.7-0.2-0.9c56.1-9.2,81-65.4,82.6-69.1c3.9-7.8,4.5-14.8,2-20.7c-4.4-10.5-17.6-14.7-26.4-17.4c-2-0.6-3.7-1.2-5-1.7
	c-11.3-4.5-14.8-9-14.3-11.7c0.6-3.2,6.1-6.4,10.8-6.4c1.1,0,2,0.2,2.7,0.5c7.7,3.6,14.8,5.5,21,5.5c9.8,0,14.1-4.5,14.6-5.1
	l1.1-1.2l-0.1-1.6c-0.2-3.7-0.4-7.6-0.7-11.6c-1.6-25.2-3.6-56.6,4.2-73.9C189.1,89.1,238.6,85,253.3,85c0.4,0,6.7-0.1,6.7-0.1
	C260.2,85,260.5,84.9,260.8,84.9 M260.8,75.9L260.8,75.9c-0.4,0-0.7,0-1,0c-2.4,0-6.3,0.1-6.6,0.1c-8.6,0-25.7,1.2-44.1,9.3
	c-10.5,4.6-20,10.9-28.1,18.7c-9.7,9.2-17.6,20.6-23.5,33.8c-8.6,19.3-6.6,51.9-4.9,78.1l0,0c0.2,2.8,0.4,5.7,0.5,8.6
	c-1.3,0.6-3.3,1.2-6.3,1.2c-4.9,0-10.6-1.6-17.2-4.6c-1.9-0.9-4.1-1.3-6.5-1.3c-3.9,0-8,1.1-11.6,3.2c-4.5,2.6-7.4,6.3-8.2,10.5
	c-0.5,2.7-0.5,8.1,5.5,13.6c3.3,3,8.1,5.8,14.4,8.2c1.6,0.6,3.6,1.3,5.6,1.9c7.1,2.3,18,5.7,20.8,12.3c1.4,3.4,0.8,7.8-1.8,13.1
	c-0.1,0.1-0.1,0.3-0.2,0.4c-0.7,1.5-6.8,15.5-19.4,30.2c-7.2,8.4-15.1,15.3-23.4,20.8c-10.2,6.6-21.3,10.9-32.9,12.9
	c-4.6,0.7-7.8,4.8-7.6,9.4c0.1,1.3,0.4,2.7,0.9,3.9c0,0,0,0,0,0c1.8,4.3,6.1,8,13.1,11.2c8.5,3.9,21.2,7.3,37.7,9.9
	c0.8,1.6,1.7,5.6,2.3,8.3c0.6,2.9,1.3,5.9,2.2,9.1c1,3.4,3.6,7.6,10.3,7.6c2.5,0,5.5-0.6,8.9-1.2c5-1,11.8-2.3,20.2-2.3
	c4.7,0,9.6,0.4,14.5,1.2c9.5,1.6,17.6,7.3,27,14c13.8,9.8,29.4,20.8,53.3,20.8c0.7,0,1.3,0,1.9-0.1c0.8,0,1.8,0.1,2.8,0.1
	c23.9,0,39.5-11,53.3-20.8l0,0c9.4-6.7,17.6-12.4,27-14c4.9-0.8,9.8-1.2,14.5-1.2c8.1,0,14.5,1,20.2,2.1c3.7,0.7,6.6,1.1,8.9,1.1
	l0.2,0h0.2c4.9,0,8.5-2.7,9.9-7.4c0.9-3.1,1.6-6,2.2-9c0.6-2.6,1.5-6.7,2.3-8.3c16.6-2.6,29.2-5.9,37.7-9.9
	c6.9-3.2,11.2-6.9,13.1-11.2c0.6-1.3,0.9-2.6,1-4c0.3-4.6-3-8.7-7.6-9.4c-51.6-8.5-74.8-61.5-75.8-63.8c-0.1-0.1-0.1-0.3-0.2-0.4
	c-2.6-5.4-3.2-9.8-1.8-13.1c2.8-6.6,13.6-10.1,20.8-12.3c2.1-0.7,4-1.3,5.6-1.9c7-2.8,12.1-5.8,15.4-9.2c4-4.1,4.7-8,4.7-10.6
	c-0.1-6.2-4.9-11.7-12.4-14.4c-2.5-1.1-5.4-1.6-8.4-1.6c-2,0-5,0.3-7.8,1.6c-6,2.8-11.4,4.4-16.1,4.6c-2.5-0.1-4.2-0.7-5.3-1.2
	c0.1-2.4,0.3-4.9,0.5-7.5l0.1-1.1c1.7-26.2,3.7-58.8-4.9-78.1c-5.9-13.3-13.9-24.7-23.6-33.9c-8.2-7.7-17.7-14-28.2-18.7
	C286.5,77.1,269.4,75.9,260.8,75.9"/>
</svg>
